<?xml version="1.0"?>
<svg xmlns="http://www.w3.org/2000/svg" viewBox="0 0 24 24">
    <path d="M 9.46875 2.21875 C 8.8656563 2.198875 8.277 2.42775 7.875 2.90625 L 17.84375 11.28125 C 19.11275 12.34625 20.9975 12.17525 22.0625 10.90625 L 19.75 8.96875 L 20.40625 8.21875 L 15.03125 3.71875 L 10.0625 2.3125 C 9.866 2.243 9.6697812 2.225375 9.46875 2.21875 z M 5.9375 5.21875 C 5.4015 5.85775 5.367 6.76 5.75 7.5 C 7.096 10.1 7.96875 12.125 7.96875 12.125 L 9.5 13.4375 L 7.53125 15.78125 C 7.53125 15.78125 6.067 15.98025 5.5 16.65625 C 4.933 17.33225 5 18.78125 5 18.78125 L 8.84375 22 L 13.96875 15.875 L 16.28125 17.8125 C 17.34625 16.5435 17.17525 14.6275 15.90625 13.5625 L 17.1875 12.03125 L 14.125 9.46875 L 12.84375 11 L 5.9375 5.21875 z"/>
</svg>
